<!-- sprite.svg -->
<svg xmlns="http://www.w3.org/2000/svg" xmlns:xlink="http://www.w3.org/1999/xlink">
  <defs>
    <symbol viewBox="0 0 24 24" id="cancel-circle">
      <path
        d="m9.75 9.75 4.5 4.5m0-4.5-4.5 4.5M21 12a9 9 0 1 1-18 0 9 9 0 0 1 18 0Z"
      />
    </symbol>
    <symbol viewBox="0 0 24 24" id="cancel">
      <path
        d="M6 18 18 6M6 6l12 12"
      />
    </symbol>
    <symbol viewBox="0 0 24 24" id="search">
      <path d="m21 21-4.34-4.34"/><circle cx="11" cy="11" r="8"/>
    </symbol>
    <symbol viewBox="0 0 448 512" id='javascript'>
        <path d="M448 96c0-35.3-28.7-64-64-64L64 32C28.7 32 0 60.7 0 96L0 416c0 35.3 28.7 64 64 64l320 0c35.3 0 64-28.7 64-64l0-320zM180.9 444.9c-33.7 0-53.2-17.4-63.2-38.5L152 385.7c6.6 11.7 12.6 21.6 27.1 21.6 13.8 0 22.6-5.4 22.6-26.5l0-143.1 42.1 0 0 143.7c0 43.6-25.6 63.5-62.9 63.5zm85.8-43L301 382.1c9 14.7 20.8 25.6 41.5 25.6 17.4 0 28.6-8.7 28.6-20.8 0-14.4-11.4-19.5-30.7-28l-10.5-4.5c-30.4-12.9-50.5-29.2-50.5-63.5 0-31.6 24.1-55.6 61.6-55.6 26.8 0 46 9.3 59.8 33.7L368 290c-7.2-12.9-15-18-27.1-18-12.3 0-20.1 7.8-20.1 18 0 12.6 7.8 17.7 25.9 25.6l10.5 4.5c35.8 15.3 55.9 31 55.9 66.2 0 37.8-29.8 58.6-69.7 58.6-39.1 0-64.4-18.6-76.7-43z" />
    </symbol>
    <symbol viewBox="0 0 640 512" id='golang'>
      <path d="M400.1 194.8c-10.9 2.8-19.9 4.3-29.1 7.6-7.3 1.9-14.7 3.9-23.2 6.1l-.6 .1c-4.2 1.2-4.6 1.3-8.5-3.2-4.7-5.3-8.1-8.7-14.6-11.9-19.7-9.6-38.7-6.8-56.4 4.7-21.2 13.7-32.1 34-31.8 59.2 .3 25 17.4 45.5 41.2 48.9 22 2.8 39.8-4.6 53.8-20.5 2.1-2.6 4-5.3 6.1-8.3 .8-1 1.5-2.1 2.3-3.3l-60.1 0c-6.5 0-8.1-4-5.9-9.3 4-9.7 11.5-25.9 15.9-34 .9-1.8 3.1-5.8 6.9-5.8l101.1 0c4.5-13.4 11.8-26.9 21.6-39.7 22.7-29.9 49.3-45.5 87.2-52 31.8-5.6 61.7-2.5 88.9 15.9 24.6 16.8 39.8 39.6 43.9 69.5 5.3 42.1-6.9 76.3-36.7 105.6-19.7 20.9-44.9 34-73.9 39.9-5.6 1-11.1 1.5-16.5 2-2.9 .2-5.7 .5-8.5 .8-28.3-.6-54.2-8.7-76-27.4-15.3-13.3-25.9-29.6-31.1-48.5-3.7 7.3-8 14.4-14 21.1-21.6 29.6-50.9 48-87.9 52.9-30.6 4.1-58.9-1.8-83.9-20.5-23-17.5-36.1-40.5-39.5-69.2-4.1-34 5.9-65.4 26.4-91.3 22.2-29 51.5-47.4 87.3-53.9 29.3-6.2 57.3-1.9 82.6 15.3 16.5 10.9 28.3 25.8 36.1 43.9 1.9 2.8 .6 4.4-3.1 5.3zM48.3 200.4c-1.3 0-1.6-.6-.9-1.6l6.6-8.4c.6-.9 2.2-1.5 3.4-1.5l111.3 0c1.2 0 1.5 .9 .9 1.8l-5.3 8.1c-.6 1-2.2 1.9-3.1 1.9l-112.8-.3zM1.2 229.1c-1.2 0-1.6-.7-.9-1.6l6.5-8.4c.6-.9 2.2-1.6 3.4-1.6l142.1 0c1.2 0 1.8 1 1.5 1.9l-2.5 7.5c-.3 1.2-1.5 1.9-2.8 1.9L1.2 229.1zm74.5 26.8c-.6 .9-.3 1.8 .9 1.8l68 .3c.9 0 2.2-.9 2.2-2.1l.6-7.5c0-1.3-.6-2.2-1.9-2.2l-62.3 0c-1.2 0-2.5 .9-3.1 1.9l-4.4 7.8zm501.5-18c-.2-2.6-.3-4.8-.7-7-5.6-30.8-34-48.3-63.6-41.4-29 6.5-47.7 24.9-54.5 54.2-5.6 24.3 6.2 48.9 28.6 58.9 17.2 7.5 34.3 6.6 50.8-1.9 24.6-13.6 38-32.7 39.6-59.5-.1-1.2-.1-2.3-.2-3.3z" />{' '}
    </symbol>
    <symbol viewBox="0 0 512 512" id='react'>
      <path d="M418.2 177.2c-5.4-1.8-10.8-3.5-16.2-5.1 .9-3.7 1.7-7.4 2.5-11.1 12.3-59.6 4.2-107.5-23.1-123.3-26.3-15.1-69.2 .6-112.6 38.4-4.3 3.7-8.5 7.6-12.5 11.5-2.7-2.6-5.5-5.2-8.3-7.7-45.5-40.4-91.1-57.4-118.4-41.5-26.2 15.2-34 60.3-23 116.7 1.1 5.6 2.3 11.1 3.7 16.7-6.4 1.8-12.7 3.8-18.6 5.9-53.4 18.5-91.7 47.7-91.7 77.9 0 31.2 40.8 62.5 96.3 81.5 4.5 1.5 9 3 13.6 4.3-1.5 6-2.8 11.9-4 18-10.5 55.5-2.3 99.5 23.9 114.6 27 15.6 72.4-.4 116.6-39.1 3.5-3.1 7-6.3 10.5-9.7 4.4 4.3 9 8.4 13.6 12.4 42.8 36.8 85.1 51.7 111.2 36.6 27-15.6 35.8-62.9 24.4-120.5-.9-4.4-1.9-8.9-3-13.5 3.2-.9 6.3-1.9 9.4-2.9 57.7-19.1 99.5-50 99.5-81.7 0-30.3-39.4-59.7-93.8-78.4zM282.9 92.3c37.2-32.4 71.9-45.1 87.7-36 16.9 9.7 23.4 48.9 12.8 100.4-.7 3.4-1.4 6.7-2.3 10-22.2-5-44.7-8.6-67.3-10.6-13-18.6-27.2-36.4-42.6-53.1 3.9-3.7 7.7-7.2 11.7-10.7zM167.2 307.5c5.1 8.7 10.3 17.4 15.8 25.9-15.6-1.7-31.1-4.2-46.4-7.5 4.4-14.4 9.9-29.3 16.3-44.5 4.6 8.8 9.3 17.5 14.3 26.1zM136.9 187.2c14.4-3.2 29.7-5.8 45.6-7.8-5.3 8.3-10.5 16.8-15.4 25.4-4.9 8.5-9.7 17.2-14.2 26-6.3-14.9-11.6-29.5-16-43.6zm27.4 68.9c6.6-13.8 13.8-27.3 21.4-40.6s15.8-26.2 24.4-38.9c15-1.1 30.3-1.7 45.9-1.7s31 .6 45.9 1.7c8.5 12.6 16.6 25.5 24.3 38.7s14.9 26.7 21.7 40.4c-6.7 13.8-13.9 27.4-21.6 40.8-7.6 13.3-15.7 26.2-24.2 39-14.9 1.1-30.4 1.6-46.1 1.6s-30.9-.5-45.6-1.4c-8.7-12.7-16.9-25.7-24.6-39s-14.8-26.8-21.5-40.6zm180.6 51.2c5.1-8.8 9.9-17.7 14.6-26.7 6.4 14.5 12 29.2 16.9 44.3-15.5 3.5-31.2 6.2-47 8 5.4-8.4 10.5-17 15.5-25.6zm14.4-76.5c-4.7-8.8-9.5-17.6-14.5-26.2-4.9-8.5-10-16.9-15.3-25.2 16.1 2 31.5 4.7 45.9 8-4.6 14.8-10 29.2-16.1 43.4zM256.2 118.3c10.5 11.4 20.4 23.4 29.6 35.8-19.8-.9-39.7-.9-59.5 0 9.8-12.9 19.9-24.9 29.9-35.8zM140.2 57c16.8-9.8 54.1 4.2 93.4 39 2.5 2.2 5 4.6 7.6 7-15.5 16.7-29.8 34.5-42.9 53.1-22.6 2-45 5.5-67.2 10.4-1.3-5.1-2.4-10.3-3.5-15.5-9.4-48.4-3.2-84.9 12.6-94zM115.7 320.6c-4.2-1.2-8.3-2.5-12.4-3.9-21.3-6.7-45.5-17.3-63-31.2-10.1-7-16.9-17.8-18.8-29.9 0-18.3 31.6-41.7 77.2-57.6 5.7-2 11.5-3.8 17.3-5.5 6.8 21.7 15 43 24.5 63.6-9.6 20.9-17.9 42.5-24.8 64.5zm116.6 98c-16.5 15.1-35.6 27.1-56.4 35.3-11.1 5.3-23.9 5.8-35.3 1.3-15.9-9.2-22.5-44.5-13.5-92 1.1-5.6 2.3-11.2 3.7-16.7 22.4 4.8 45 8.1 67.9 9.8 13.2 18.7 27.7 36.6 43.2 53.4-3.2 3.1-6.4 6.1-9.6 8.9zm24.5-24.3c-10.2-11-20.4-23.2-30.3-36.3 9.6 .4 19.5 .6 29.5 .6 10.3 0 20.4-.2 30.4-.7-9.2 12.7-19.1 24.8-29.6 36.4zm130.7 30c-.9 12.2-6.9 23.6-16.5 31.3-15.9 9.2-49.8-2.8-86.4-34.2-4.2-3.6-8.4-7.5-12.7-11.5 15.3-16.9 29.4-34.8 42.2-53.6 22.9-1.9 45.7-5.4 68.2-10.5 1 4.1 1.9 8.2 2.7 12.2 4.9 21.6 5.7 44.1 2.5 66.3zm18.2-107.5c-2.8 .9-5.6 1.8-8.5 2.6-7-21.8-15.6-43.1-25.5-63.8 9.6-20.4 17.7-41.4 24.5-62.9 5.2 1.5 10.2 3.1 15 4.7 46.6 16 79.3 39.8 79.3 58 0 19.6-34.9 44.9-84.8 61.4zM256 301.8a45.8 45.8 0 1 0 0-91.6 45.8 45.8 0 1 0 0 91.6z" />{' '}
    </symbol>
    <symbol viewBox="0 0 640 640" id='google'>
      <path d="M564 325.8C564 467.3 467.1 568 324 568C186.8 568 76 457.2 76 320C76 182.8 186.8 72 324 72C390.8 72 447 96.5 490.3 136.9L422.8 201.8C334.5 116.6 170.3 180.6 170.3 320C170.3 406.5 239.4 476.6 324 476.6C422.2 476.6 459 406.2 464.8 369.7L324 369.7L324 284.4L560.1 284.4C562.4 297.1 564 309.3 564 325.8z" />
    </symbol>
    <symbol viewBox="0 0 24 24" id='flower'>
      <path d="M12 5a3 3 0 1 1 3 3m-3-3a3 3 0 1 0-3 3m3-3v1M9 8a3 3 0 1 0 3 3M9 8h1m5 0a3 3 0 1 1-3 3m3-3h-1m-2 3v-1"/><circle cx="12" cy="8" r="2"/><path d="M12 10v12"/><path d="M12 22c4.2 0 7-1.667 7-5-4.2 0-7 1.667-7 5Z"/><path d="M12 22c-4.2 0-7-1.667-7-5 4.2 0 7 1.667 7 5Z"/>
    </symbol>
  </defs>
</svg>